<?xml version="1.0" encoding="utf-8"?><!-- Uploaded to: SVG Repo, www.svgrepo.com, Generator: SVG Repo Mixer Tools -->
<svg fill="#000000" width="800px" height="800px" viewBox="0 0 24 24" id="television" data-name="Flat Color" xmlns="http://www.w3.org/2000/svg" class="icon flat-color"><path id="secondary" d="M8,19v2a1,1,0,0,1-1,1H5a1,1,0,0,1-1-1V19a1,1,0,0,1,1-1H7A1,1,0,0,1,8,19Zm11-1H17a1,1,0,0,0-1,1v2a1,1,0,0,0,1,1h2a1,1,0,0,0,1-1V19A1,1,0,0,0,19,18ZM14.2,2.4,12,5.33,9.8,2.4A1,1,0,1,0,8.2,3.6l3,4a.64.64,0,0,0,.1.13,1.15,1.15,0,0,0,.29.2A1,1,0,0,0,12,8h0a1,1,0,0,0,.42-.09,1.15,1.15,0,0,0,.29-.2.64.64,0,0,0,.1-.13l3-4a1,1,0,0,0-1.6-1.2Z" style="fill: rgb(44, 169, 188);"></path><rect id="primary" x="2" y="6" width="20" height="14" rx="2" style="fill: rgb(0, 0, 0);"></rect></svg>