<?xml version="1.0" encoding="iso-8859-1"?>
<!-- Uploaded to: SVG Repo, www.svgrepo.com, Generator: SVG Repo Mixer Tools -->
<svg fill="#000000" version="1.1" id="Layer_1" xmlns="http://www.w3.org/2000/svg" xmlns:xlink="http://www.w3.org/1999/xlink" 
	 viewBox="0 0 512 512" xml:space="preserve">
<g>
	<g>
		<path d="M171.77,145.134c-2.821,0-5.116,2.295-5.116,5.117v19.675h10.233v-19.675C176.887,147.43,174.592,145.134,171.77,145.134z
			"/>
	</g>
</g>
<g>
	<g>
		<path d="M222.465,242.469c-2.821,0-5.116,2.295-5.116,5.117v36.911h10.233v-36.911
			C227.583,244.765,225.287,242.469,222.465,242.469z"/>
	</g>
</g>
<g>
	<g>
		<path d="M80.424,127.898c-2.821,0-5.116,2.296-5.116,5.117v36.911h10.233v-36.911C85.541,130.193,83.246,127.898,80.424,127.898z"
			/>
	</g>
</g>
<g>
	<g>
		<rect x="129.375" y="263.545" width="6.866" height="23.079"/>
	</g>
</g>
<g>
	<g>
		<polygon points="333.308,76.031 333.308,127.898 365.839,127.898 365.839,158.315 333.308,158.315 333.308,328.655 
			365.839,328.655 365.839,359.072 333.308,359.072 333.308,410.937 512,410.937 512,76.031 		"/>
	</g>
</g>
<g>
	<g>
		<path d="M0,53.23v380.508h30.417v25.032h30.417v-25.032h181.222v25.032h30.417v-25.032h30.417V380.52V106.449V53.23H0z
			 M75.308,403.321H44.891v-50.14h30.417V403.321z M120.98,403.321H90.563v-50.14h30.417V403.321z M166.654,403.321h-30.417v-50.14
			h30.417V403.321z M212.326,403.321h-30.417v-50.14h30.417V403.321z M258,403.321h-30.417v-50.14H258V403.321z M272.473,317.041
			H166.654H98.953H30.417v-30.417h14.474v-50.14h30.417v50.14h23.644v-53.496h18.642v-17.02h30.417v17.02h18.643v53.496h20.278
			v-39.037c0-19.594,15.941-35.534,35.533-35.534c19.594,0,35.534,15.941,35.534,35.534v39.037h14.474V317.041z M272.473,200.343
			h-65.169h-71.068h-20.278H44.891H30.417v-30.415h14.474v-36.912c0-19.594,15.941-35.534,35.533-35.534
			c19.594,0,35.534,15.941,35.534,35.534v36.911h20.278v-19.675c0-14.154,8.32-26.398,20.325-32.107V99.508h30.417v18.635
			c12.005,5.709,20.326,17.953,20.326,32.107v19.675h20.278v-50.14H258v50.14h14.474V200.343z"/>
	</g>
</g>
</svg>